<svg id="logo" xmlns="http://www.w3.org/2000/svg" width="186.811" height="22.775" viewBox="0 0 186.811 22.775">
  <path id="Trazado_1187" data-name="Trazado 1187" d="M48.41,0,43.169,11.389,37.928,0H30V22.776h7.924V11.387l5.241,11.389L48.41,11.387V22.776h7.924V0ZM65.6,0,59.432,22.776h7.924l1.012-3.739h8.459l1.012,3.739h7.923L79.6,0h-14Zm7,3.412L75.814,15.3H69.379L72.6,3.412ZM100,2.919c1.846,0,3.641,1,3.641,3.031A3.631,3.631,0,0,1,100,9.633H98.222V2.919ZM105.226.351a6.5,6.5,0,0,1,6.468,6.539,6.505,6.505,0,0,1-6.468,6.541H98.085v9.345H89.892V.351h15.333Zm9.309-.012h21.78V4.022H122.727V9.729h13.589v3.681H122.727v9.367h-8.193Zm57.713,18.755h13.59v3.682H164.055V.339h21.783V4.022h-13.59V9.729h13.59v3.681h-13.59ZM149.288,2.922c1.8,0,3.639,1,3.639,3.031a3.66,3.66,0,0,1-3.639,3.682h-1.778V2.922Zm11.691,14.064v.184c0-.062,0-.123,0-.185Zm0,.184v5.607h-8.055V17.35l0-.181a3.662,3.662,0,0,0-3.639-3.682h-1.778v9.289h-8.328V.348h16.252a5.576,5.576,0,0,1,5.545,5.605,5.577,5.577,0,0,1-5.545,5.608,5.576,5.576,0,0,1,5.545,5.423C160.982,17.047,160.979,17.107,160.979,17.17ZM10.639,13.655v3.431H9.555V13.655c-.52,0-1.2,0-1.452-.013l-3.6.011a1.625,1.625,0,0,1-.9-.22,1.659,1.659,0,0,1-.818-1.5A1.16,1.16,0,0,1,2.8,11.7a6.538,6.538,0,0,1,2.2-3.847A1.84,1.84,0,0,1,6.4,7.522a1.771,1.771,0,0,1,.877-1.076,1.3,1.3,0,0,1,.215-.1,7.591,7.591,0,0,1,5.234,0,2.011,2.011,0,0,1,1.068,1.159A1.568,1.568,0,0,1,15.11,7.8a7.046,7.046,0,0,1,1.516,1.8,6.593,6.593,0,0,1,.765,2.114,1.435,1.435,0,0,1,.02.225,1.656,1.656,0,0,1-.818,1.5,1.628,1.628,0,0,1-.9.22l-3.6-.009c-.256.009-.931.012-1.452.012m3.835-4.97a.549.549,0,0,0-.837.216l-1.826,3.214a.281.281,0,0,0-.009.293.27.27,0,0,0,.262.136l3.663.011a.55.55,0,0,0,.324-.073.561.561,0,0,0,.273-.53.228.228,0,0,0,0-.054,5.469,5.469,0,0,0-1.83-3.2l-.018-.013m-8.754,0a.548.548,0,0,1,.837.216l1.825,3.214a.284.284,0,0,1,.009.293.271.271,0,0,1-.262.136l-3.664.011a.543.543,0,0,1-.321-.073.56.56,0,0,1-.274-.53.162.162,0,0,1,0-.054A5.439,5.439,0,0,1,5.7,8.7l.018-.013m6.654-1.293a.688.688,0,0,1,.289,1.034L10.4,12.367a.333.333,0,0,1-.3.189.34.34,0,0,1-.306-.2L7.528,8.419a.686.686,0,0,1,.267-1.012.242.242,0,0,1,.061-.03,6.516,6.516,0,0,1,4.519.013" transform="translate(0.973)" fill="#ED1A2D" fill-rule="evenodd"/>
  <g id="Grupo_2859" data-name="Grupo 2859" transform="translate(0 0.29)">
    <path id="Trazado_1188" data-name="Trazado 1188" d="M11.069,1.283a10.128,10.128,0,0,0,0,20.255,10.128,10.128,0,0,0,0-20.255m0-1.066a11.132,11.132,0,0,1,11.07,11.193A11.132,11.132,0,0,1,11.069,22.6,11.13,11.13,0,0,1,0,11.411,11.134,11.134,0,0,1,11.068.215" transform="translate(0 -0.215)" fill="#ED1A2D" fill-rule="evenodd"/>
  </g>
</svg>
